<svg width="25" height="25" viewBox="0 0 25 25" fill="none" xmlns="http://www.w3.org/2000/svg">
<circle cx="12.5" cy="12.5" r="12.5" fill="#F2BD2A"/>
<path d="M14.4187 5.63123H10.6687V6.88123H14.4187V5.63123ZM11.9187 13.7562H13.1687V10.0062H11.9187V13.7562ZM16.9375 9.61873L17.825 8.73123C17.5562 8.41248 17.2625 8.11248 16.9437 7.84998L16.0562 8.73748C15.0875 7.96248 13.8687 7.49998 12.5437 7.49998C9.4375 7.49998 6.91875 10.0187 6.91875 13.125C6.91875 16.2312 9.43125 18.75 12.5437 18.75C15.6562 18.75 18.1687 16.2312 18.1687 13.125C18.1687 11.8062 17.7062 10.5875 16.9375 9.61873ZM12.5437 17.5062C10.125 17.5062 8.16875 15.55 8.16875 13.1312C8.16875 10.7125 10.125 8.75623 12.5437 8.75623C14.9625 8.75623 16.9187 10.7125 16.9187 13.1312C16.9187 15.55 14.9625 17.5062 12.5437 17.5062Z" fill="white"/>
</svg>
